<svg width="340" height="84" viewBox="1060 0 340 84" fill="none" xmlns="http://www.w3.org/2000/svg" aria-hidden="true">
<path d="M1381.09 26.4027H1370.34L1375.71 11.492L1381.09 26.4027Z" fill="#E6233A"/>
<path d="M1383.92 2.11369e-06L0 0V84L1383.92 84L1400 42.0549L1383.92 2.11369e-06ZM1267.98 39.2952C1260.37 39.2952 1254.91 35.0114 1254.91 28.984H1260.82C1260.82 32.2792 1263.55 34.3112 1267.94 34.2151C1272.07 34.1327 1274.39 32.4577 1274.35 29.7529C1274.31 27.46 1272.6 25.9634 1269.28 25.3318L1264.35 24.3844C1258.35 23.2174 1255.34 20.3753 1255.34 15.8307C1255.34 11.286 1260 5.95881 1267.22 5.95881C1274.44 5.95881 1279.55 9.78947 1279.55 15.5149H1273.64C1273.64 12.7277 1271.3 11.0526 1267.28 11.0526C1263.25 11.0526 1261.27 12.6316 1261.27 15.2815C1261.27 17.9313 1262.74 18.5217 1266.11 19.1533L1271.58 20.1968C1277.41 21.3227 1280.18 24.2059 1280.27 29.0801C1280.41 35.341 1275.56 39.3089 1268 39.3089L1267.98 39.2952ZM1307.43 11.849H1297.85V38.8009H1292.02V11.849H1282.29V6.43936H1307.43V11.849ZM1333.23 11.849H1317.1V19.3318H1331.12V24.6041H1317.1V33.3913H1333.23V38.8009H1311.28V6.43936H1333.23V11.849ZM1357.21 38.8009H1338.12V6.43936H1343.95V33.3913H1357.22V38.8009H1357.21ZM1382.97 31.73H1368.41L1365.85 38.8009H1359.85L1372.17 6.43936H1379.44L1391.75 38.8009H1385.53L1382.97 31.73Z" fill="#E6233A"/>
<path d="M1379.44 6.43936H1372.17L1359.85 38.8009H1365.85L1368.41 31.73H1382.97L1385.53 38.8009H1391.75L1379.44 6.43936ZM1370.34 26.4027L1375.72 11.4783L1381.1 26.4027H1370.34Z" fill="white"/>
<path d="M1357.21 33.3913V38.8009H1338.12V6.43936H1343.94V33.3913H1357.21Z" fill="white"/>
<path d="M1317.11 11.849V19.3318H1331.13V24.6041H1317.11V33.3913L1333.23 33.3913V38.8009H1311.28V6.43936H1333.23V11.849H1317.11Z" fill="white"/>
<path d="M1307.43 6.43936V11.849H1297.83V38.8009H1292V11.849H1282.28V6.43936H1307.43Z" fill="white"/>
<path d="M1280.27 29.0664C1280.41 35.3272 1275.56 39.2952 1268 39.2952C1260.43 39.2952 1254.92 35.0114 1254.92 28.984H1260.83C1260.83 32.2792 1263.56 34.3112 1267.96 34.2151C1272.08 34.1327 1274.4 32.4577 1274.36 29.7529C1274.32 27.4599 1272.61 25.9634 1269.3 25.3318L1264.37 24.3844C1258.36 23.2174 1255.36 20.3753 1255.36 15.8307C1255.36 11.286 1260.01 5.95881 1267.23 5.95881C1274.46 5.95881 1279.56 9.78947 1279.56 15.5149H1273.65C1273.65 12.7277 1271.32 11.0526 1267.29 11.0526C1263.26 11.0526 1261.28 12.6316 1261.28 15.2815C1261.28 17.9313 1262.76 18.5217 1266.13 19.1533L1271.59 20.1968C1277.42 21.3226 1280.19 24.2059 1280.29 29.0801L1280.27 29.0664Z" fill="white"/>
</svg>
