<svg width="79" height="104" viewBox="0 0 79 104" fill="none" xmlns="http://www.w3.org/2000/svg" aria-hidden="true">
<path d="M17.2129 21.8094L16.0758 71.7896H18.3516L17.2129 21.8094Z" fill="currentColor"/>
<path d="M19.9714 13.0518L18.8327 71.7896H21.1101L19.9714 13.0518Z" fill="currentColor"/>
<path d="M22.7282 0L21.5911 71.7896H23.8669L22.7282 0Z" fill="currentColor"/>
<path d="M25.4866 13.0518L24.3479 71.7896H26.6253L25.4866 13.0518Z" fill="currentColor"/>
<path d="M28.2435 21.8094L27.1064 71.7896H29.3822L28.2435 21.8094Z" fill="currentColor"/>
<path d="M31.0019 34.7922L29.8632 71.7896H32.139L31.0019 34.7922Z" fill="currentColor"/>
<path d="M33.7587 26.1883L32.6216 71.7896H34.8974L33.7587 26.1883Z" fill="currentColor"/>
<path d="M36.5172 21.8094L35.3785 71.7896H37.6543L36.5172 21.8094Z" fill="currentColor"/>
<path d="M39.274 13.0518L38.1369 71.7896H40.4127L39.274 13.0518Z" fill="currentColor"/>
<path d="M42.0324 21.8094L40.8937 71.7896H43.1696L42.0324 21.8094Z" fill="currentColor"/>
<path d="M44.7893 26.1883L43.6522 71.7896H45.928L44.7893 26.1883Z" fill="currentColor"/>
<path d="M47.5477 34.7922L46.409 71.7896H48.6848L47.5477 34.7922Z" fill="currentColor"/>
<path d="M50.3046 21.8094L49.1674 71.7896H51.4433L50.3046 21.8094Z" fill="currentColor"/>
<path d="M53.063 13.0518L51.9243 71.7896H54.2001L53.063 13.0518Z" fill="currentColor"/>
<path d="M55.8198 0L54.6827 71.7896H56.9585L55.8198 0Z" fill="currentColor"/>
<path d="M58.5783 13.0518L57.4396 71.7896H59.7154L58.5783 13.0518Z" fill="currentColor"/>
<path d="M61.3351 21.8094L60.198 71.7896H62.4738L61.3351 21.8094Z" fill="currentColor"/>
<path d="M6.72336 88.5347C6.6035 88.6146 6.50414 88.6805 6.42528 88.7323C6.34642 88.7856 6.27387 88.8248 6.20606 88.8515C6.08619 88.9126 5.94425 88.9707 5.78023 89.024C5.61621 89.0773 5.44272 89.1228 5.2645 89.162C5.08471 89.2012 4.90176 89.2341 4.71408 89.2608C4.5264 89.2875 4.35449 89.3 4.19835 89.3C3.59273 89.3 3.03127 89.1604 2.51397 88.8828C1.99824 88.6052 1.55349 88.2178 1.18443 87.7191C0.815383 87.2204 0.523611 86.6322 0.313851 85.9531C0.104091 85.2741 0 84.5291 0 83.7183C0 82.9074 0.1104 82.1515 0.3312 81.4771C0.552 80.8027 0.86112 80.2255 1.25698 79.7456C1.65285 79.2657 2.1323 78.8924 2.69376 78.629C3.25522 78.3639 3.87189 78.2322 4.54533 78.2322C4.73301 78.2322 4.89861 78.2384 5.04528 78.2526C5.19195 78.2651 5.33547 78.2871 5.47742 78.3184C5.61936 78.3498 5.76603 78.3953 5.91586 78.458C6.06569 78.5192 6.24075 78.5992 6.44421 78.6964L6.48837 80.0718L6.37639 80.1111C6.0925 79.7064 5.78811 79.4147 5.46795 79.2375C5.14622 79.0618 4.78347 78.9724 4.37973 78.9724C3.62427 78.9724 3.06597 79.3598 2.70795 80.1361C2.34837 80.9125 2.16857 82.1248 2.16857 83.7731C2.16857 85.4215 2.37675 86.5915 2.79154 87.3631C3.20633 88.1347 3.84823 88.5205 4.71723 88.5205C4.85129 88.5205 4.98062 88.5127 5.10521 88.4939C5.22823 88.4766 5.35598 88.4453 5.48688 88.4013C5.61778 88.3574 5.75973 88.2978 5.91271 88.2226C6.06569 88.1473 6.24391 88.0532 6.44578 87.9387L6.72652 88.5331L6.72336 88.5347Z" fill="currentColor"/>
<path d="M7.74062 83.996C7.74062 83.2071 7.84313 82.4622 8.04974 81.7627C8.25477 81.0632 8.53392 80.4531 8.88562 79.9324C9.23733 79.4117 9.65054 79.0024 10.1253 78.7013C10.6 78.4017 11.1078 78.2512 11.6456 78.2512C12.155 78.2512 12.6376 78.397 13.0934 78.6887C13.5492 78.9805 13.9483 79.3788 14.2889 79.8854C14.6296 80.392 14.8993 80.9817 15.0964 81.6545C15.2951 82.3273 15.3945 83.044 15.3945 83.8063C15.3945 84.5685 15.2936 85.3307 15.0917 86.0129C14.8898 86.6952 14.6138 87.288 14.2668 87.7946C13.9183 88.3011 13.5114 88.6979 13.043 88.9849C12.5746 89.2719 12.0715 89.4147 11.5336 89.4147C10.9958 89.4147 10.5054 89.2845 10.0401 89.0242C9.57641 88.7638 9.17424 88.3937 8.83358 87.9138C8.49292 87.4338 8.2248 86.863 8.03081 86.198C7.83682 85.5346 7.73904 84.799 7.73904 83.9913L7.74062 83.996ZM11.5463 79.0589C11.3065 79.0589 11.0857 79.1326 10.8839 79.2816C10.682 79.429 10.5054 79.6815 10.3555 80.0344C10.2057 80.3888 10.0843 80.8593 9.9912 81.4475C9.89815 82.0356 9.84295 82.7633 9.82876 83.6337V84.0101C9.82876 84.97 9.87292 85.7526 9.96281 86.358C10.0527 86.9633 10.1742 87.437 10.3271 87.7773C10.4801 88.1176 10.6615 88.3529 10.8712 88.4831C11.081 88.6132 11.3097 88.6775 11.5557 88.6775C12.7228 88.6775 13.3064 87.0057 13.3064 83.6604C13.3064 82.1266 13.1691 80.977 12.8963 80.21C12.6235 79.4431 12.2134 79.0604 11.6677 79.0604H11.5447L11.5463 79.0589Z" fill="currentColor"/>
<path d="M18.9778 78.3735L22.4538 84.9511V78.3735H23.2471V89.1763H22.4222L17.8391 80.3512V89.1763H16.9511V78.3735H18.9778Z" fill="currentColor"/>
<path d="M31.6296 88.6368C31.5097 88.7183 31.4104 88.7842 31.3315 88.8391C31.2527 88.8924 31.1801 88.9332 31.1123 88.9598C30.9924 89.0226 30.8505 89.0806 30.6865 89.1355C30.5224 89.1888 30.349 89.2359 30.1707 89.2767C29.991 89.3174 29.808 89.3504 29.6203 89.377C29.4326 89.4037 29.2607 89.4178 29.1046 89.4178C28.499 89.4178 27.9375 89.2766 27.4202 88.9943C26.9045 88.712 26.4597 88.3168 26.0907 87.8102C25.72 87.3037 25.4299 86.7046 25.2201 86.0145C25.0103 85.3244 24.9062 84.5669 24.9062 83.7404C24.9062 82.9139 25.0166 82.1469 25.2374 81.46C25.4582 80.7746 25.7674 80.1865 26.1632 79.6972C26.5591 79.2079 27.0385 78.8299 27.6 78.5601C28.1615 78.2904 28.7781 78.1571 29.4516 78.1571C29.6392 78.1571 29.8048 78.1633 29.9515 78.1775C30.0982 78.1916 30.2417 78.2135 30.3837 78.2449C30.5256 78.2763 30.6723 78.3233 30.8221 78.386C30.9719 78.4488 31.147 78.5288 31.3504 78.6276L31.3946 80.0265L31.2826 80.0673C30.9987 79.6548 30.6944 79.3584 30.3742 79.1796C30.0525 79.0008 29.6897 78.9099 29.286 78.9099C28.5305 78.9099 27.9722 79.3051 27.6142 80.094C27.2546 80.8829 27.0748 82.1171 27.0748 83.7937C27.0748 85.4703 27.283 86.6622 27.6978 87.4464C28.1126 88.2306 28.7545 88.6227 29.6235 88.6227C29.7575 88.6227 29.8869 88.6133 30.0115 88.596C30.1345 88.5788 30.2622 88.5474 30.3931 88.5019C30.524 88.4564 30.666 88.3968 30.819 88.32C30.9719 88.2431 31.1502 88.1474 31.352 88.0314L31.6328 88.6368H31.6296Z" fill="currentColor"/>
<path d="M33.1815 78.4676H38.2536V79.4494H35.134V81.5212H38.2536V82.5704H35.134V88.2196H38.2536V89.1747H33.1815V78.466V78.4676Z" fill="currentColor"/>
<path d="M41.6713 78.4002V88.127H44.8256V89.1763H39.8024V78.4002H41.6713Z" fill="currentColor"/>
<path d="M47.8963 78.4002V88.127H51.0506V89.1763H46.0273V78.4002H47.8963Z" fill="currentColor"/>
<path d="M51.8738 83.996C51.8738 83.2071 51.9763 82.4622 52.1829 81.7627C52.388 81.0632 52.6671 80.4531 53.0188 79.9324C53.3705 79.4117 53.7837 79.0024 54.2585 78.7013C54.7332 78.4017 55.241 78.2512 55.7788 78.2512C56.2882 78.2512 56.7708 78.397 57.2266 78.6887C57.6824 78.9805 58.0814 79.3788 58.4221 79.8854C58.7628 80.392 59.0325 80.9817 59.2312 81.6545C59.4299 82.3273 59.5293 83.044 59.5293 83.8063C59.5293 84.5685 59.4283 85.3307 59.2265 86.0129C59.0246 86.6952 58.7486 87.288 58.4016 87.7946C58.0531 88.3011 57.6462 88.6979 57.1777 88.9849C56.7093 89.2719 56.2062 89.4147 55.6684 89.4147C55.1306 89.4147 54.6401 89.2845 54.1749 89.0242C53.7112 88.7638 53.309 88.3937 52.9683 87.9138C52.6277 87.4338 52.3596 86.863 52.1656 86.198C51.9716 85.5346 51.8738 84.799 51.8738 83.9913V83.996ZM55.6779 79.0589C55.4382 79.0589 55.2174 79.1326 55.0155 79.2816C54.8136 79.429 54.637 79.6815 54.4871 80.0344C54.3373 80.3888 54.2159 80.8593 54.1228 81.4475C54.0298 82.0356 53.9746 82.7633 53.9604 83.6337V84.0101C53.9604 84.97 54.0045 85.7526 54.0944 86.358C54.1843 86.9633 54.3058 87.437 54.4587 87.7773C54.6117 88.1176 54.7931 88.3529 55.0029 88.4831C55.2126 88.6132 55.4413 88.6775 55.6873 88.6775C56.8544 88.6775 57.438 87.0057 57.438 83.6604C57.438 82.1266 57.3008 80.977 57.0279 80.21C56.7551 79.4431 56.345 79.0604 55.7993 79.0604H55.6763L55.6779 79.0589Z" fill="currentColor"/>
<path d="M67.762 78.5335C68.3912 78.5335 68.9764 78.6636 69.5189 78.924C70.0614 79.1843 70.5298 79.5451 70.9226 80.0061C71.3153 80.4688 71.6244 81.0146 71.8483 81.6466C72.0723 82.2787 72.1843 82.9625 72.1843 83.698C72.1843 84.2093 72.137 84.7049 72.0439 85.1848C71.9509 85.6647 71.8168 86.0976 71.6449 86.4834C71.4809 86.852 71.2553 87.1986 70.9714 87.5264C70.6876 87.8542 70.3721 88.138 70.0283 88.3811C69.6845 88.6227 69.3233 88.8156 68.9448 88.9598C68.5663 89.1041 68.202 89.1747 67.8503 89.1747H65.1344V78.5335H67.762ZM67.0333 88.3952C69.0994 88.3419 70.1308 86.8347 70.1308 83.8753C70.1308 82.71 69.9321 81.7047 69.5362 80.8625C69.4022 80.5849 69.2571 80.3465 69.1041 80.1489C68.9511 79.9513 68.7761 79.7881 68.5821 79.658C68.3881 79.5278 68.1641 79.4243 67.9149 79.349C67.6642 79.2722 67.3708 79.222 67.0333 79.1937V88.3952Z" fill="currentColor"/>
<path d="M73.7157 78.4676H78.8571V79.4494H75.6965V81.5212H78.8571V82.5704H75.6965V88.2196H78.8571V89.1747H73.7157V78.466V78.4676Z" fill="currentColor"/>
<path d="M15.6878 94.5902C15.6516 94.5275 15.6169 94.4663 15.5869 94.4083C15.5554 94.3503 15.5222 94.2938 15.486 94.2405C15.4308 94.1511 15.3708 94.0633 15.3062 93.9786C15.2415 93.8939 15.1847 93.828 15.1358 93.7841C15.0617 93.7041 14.9655 93.621 14.8456 93.5347C14.7258 93.45 14.5949 93.3716 14.4545 93.2995C14.3126 93.2273 14.1612 93.1693 13.9987 93.1238C13.8363 93.0783 13.6786 93.0564 13.524 93.0564C13.1676 93.0564 12.8853 93.1709 12.6771 93.3998C12.4689 93.6288 12.3632 93.9362 12.3632 94.322C12.3632 94.529 12.3963 94.7219 12.4642 94.9007C12.532 95.0795 12.6487 95.2662 12.8143 95.4591C12.9799 95.652 13.2038 95.8606 13.4862 96.0849C13.7685 96.3091 14.1217 96.5695 14.5444 96.8659C15.1406 97.2878 15.5901 97.7802 15.8929 98.3464C16.1973 98.911 16.3487 99.5305 16.3487 100.203C16.3487 100.697 16.2777 101.144 16.1373 101.549C15.9954 101.952 15.7982 102.3 15.5427 102.592C15.2873 102.884 14.9797 103.108 14.617 103.265C14.2542 103.422 13.852 103.5 13.4104 103.5C13.2385 103.5 13.0619 103.489 12.8805 103.467C12.6992 103.445 12.5288 103.415 12.3695 103.379C12.1913 103.334 12.0115 103.276 11.8302 103.204C11.6488 103.131 11.4627 103.047 11.2734 102.948C11.1315 102.866 11.0321 102.796 10.9738 102.733C10.9154 102.67 10.887 102.562 10.887 102.41V102.316C10.887 102.27 10.8902 102.231 10.8965 102.195C10.9028 102.15 10.9059 102.106 10.9059 102.06V100.77C10.9059 100.68 10.9485 100.635 11.0353 100.635C11.0779 100.635 11.1189 100.649 11.1551 100.675C11.1914 100.702 11.2135 100.743 11.2198 100.796C11.2261 100.868 11.2498 100.953 11.2939 101.052C11.3365 101.151 11.387 101.251 11.4453 101.355C11.5037 101.458 11.5668 101.557 11.6346 101.651C11.7024 101.745 11.7671 101.819 11.8286 101.874C12.1298 102.161 12.4042 102.374 12.6534 102.512C12.9026 102.652 13.1802 102.721 13.4862 102.721C13.9467 102.721 14.3157 102.564 14.5965 102.25C14.8756 101.936 15.016 101.524 15.016 101.013C15.016 100.815 15.0002 100.642 14.9702 100.495C14.9387 100.348 14.8835 100.203 14.7999 100.065C14.7163 99.9257 14.6012 99.7814 14.4545 99.6277C14.3078 99.4756 14.1202 99.2921 13.8931 99.0757L12.8979 98.2147C12.6156 97.981 12.3837 97.7771 12.2024 97.603C12.021 97.4274 11.8869 97.2909 11.8018 97.1921C11.5936 96.9506 11.4217 96.6322 11.286 96.237C11.1504 95.8418 11.0842 95.4481 11.0842 95.0529C11.0842 94.6937 11.1488 94.3487 11.2782 94.0178C11.4075 93.6868 11.581 93.392 11.7986 93.1364C12.0163 92.8807 12.2718 92.6784 12.5635 92.531C12.8553 92.3835 13.1628 92.3083 13.4893 92.3083C13.6801 92.3083 13.8789 92.3177 14.0886 92.3349C14.2968 92.3522 14.4987 92.3804 14.6911 92.4149C14.8851 92.451 15.0665 92.4965 15.2384 92.5498C15.4103 92.6031 15.5601 92.6706 15.6894 92.7521V94.5949L15.6878 94.5902Z" fill="currentColor"/>
<path d="M21.3056 92.5592L24.3811 103.254H22.3939L21.4728 99.9712H18.6103L17.6561 103.254H16.7808L19.8894 92.5592H21.3056ZM21.1937 98.8812L20.0376 94.9258L18.9147 98.8812H21.1937Z" fill="currentColor"/>
<path d="M25.4393 92.451H27.4612L30.9309 99.0286V92.451H31.7227V103.254H30.8994L26.3257 94.4287V103.254H25.4393V92.451Z" fill="currentColor"/>
<path d="M35.0914 93.5143H32.9828V92.5184H39.1337V93.5143H36.913V103.254H35.0899V93.5143H35.0914Z" fill="currentColor"/>
<path d="M40.4064 92.4777H42.3368V103.254H40.4064V92.4777Z" fill="currentColor"/>
<path d="M47.7512 92.5592L50.8266 103.254H48.8394L47.9183 99.9712H45.0558L44.1017 103.254H43.2263L46.3349 92.5592H47.7512ZM47.6392 98.8812L46.4831 94.9258L45.3602 98.8812H47.6392Z" fill="currentColor"/>
<path d="M58.1713 94.3471L58.0483 94.3612C57.9143 94.1103 57.7771 93.9001 57.6383 93.7292C57.4995 93.5582 57.3544 93.4218 57.1998 93.3183C57.0468 93.2148 56.8812 93.1411 56.7062 93.0956C56.5295 93.0501 56.3308 93.0281 56.1053 93.0281C54.6086 93.0281 53.8594 94.7596 53.8594 98.2209C53.8594 99.6826 54.0392 100.795 54.3988 101.557C54.7584 102.319 55.2773 102.7 55.9586 102.7C56.0564 102.7 56.1605 102.695 56.2725 102.686C56.3844 102.677 56.5043 102.664 56.6321 102.645V98.4609H55.8908C55.823 98.4609 55.7899 98.4342 55.7899 98.3809L55.8466 97.7614C55.8466 97.7081 55.8766 97.6814 55.9365 97.6814H58.4726V101.798L58.7092 102.189C58.3575 102.548 58.0625 102.804 57.8228 102.956C57.591 103.108 57.3102 103.237 56.9806 103.338C56.651 103.442 56.3292 103.494 56.0154 103.494C55.424 103.494 54.8767 103.349 54.3704 103.064C53.8657 102.777 53.4257 102.38 53.0519 101.874C52.6782 101.367 52.3848 100.773 52.1703 100.092C51.9574 99.4098 51.8502 98.6711 51.8502 97.8728C51.8502 97.0745 51.959 96.3013 52.1751 95.6065C52.3927 94.9117 52.6955 94.3126 53.0835 93.8108C53.473 93.3089 53.9351 92.9168 54.4698 92.6329C55.0044 92.3506 55.5911 92.2095 56.2267 92.2095C56.4365 92.2095 56.6794 92.2471 56.957 92.324C57.2345 92.4008 57.6083 92.5278 58.0799 92.7066L58.1698 94.3471H58.1713Z" fill="currentColor"/>
<path d="M59.8021 98.0735C59.8021 97.2846 59.9046 96.5397 60.1112 95.8402C60.3163 95.1407 60.5954 94.5306 60.9471 94.0099C61.2988 93.4892 61.712 93.0799 62.1867 92.7788C62.6615 92.4792 63.1693 92.3287 63.7071 92.3287C64.2165 92.3287 64.6991 92.4745 65.1549 92.7662C65.6107 93.0579 66.0098 93.4563 66.3504 93.9629C66.6911 94.4695 66.9608 95.0592 67.1579 95.732C67.3566 96.4048 67.456 97.1215 67.456 97.8837C67.456 98.646 67.355 99.4082 67.1532 100.09C66.9513 100.773 66.6753 101.365 66.3283 101.872C65.9798 102.379 65.5729 102.775 65.1045 103.062C64.636 103.349 64.1329 103.492 63.5951 103.492C63.0573 103.492 62.5668 103.362 62.1016 103.102C61.6379 102.841 61.2357 102.471 60.8951 101.991C60.5544 101.511 60.2863 100.94 60.0923 100.275C59.8983 99.6121 59.8005 98.8765 59.8005 98.0688L59.8021 98.0735ZM63.6062 93.1364C63.3664 93.1364 63.1457 93.2101 62.9438 93.3591C62.7419 93.5081 62.5653 93.759 62.4154 94.1119C62.2656 94.4663 62.1442 94.9368 62.0511 95.525C61.9581 96.1131 61.9029 96.8408 61.8887 97.7112V98.0876C61.8887 99.0475 61.9328 99.8301 62.0227 100.435C62.1126 101.041 62.2341 101.514 62.387 101.855C62.54 102.195 62.7214 102.43 62.9312 102.561C63.1409 102.691 63.3696 102.755 63.6156 102.755C64.7827 102.755 65.3663 101.083 65.3663 97.7379C65.3663 96.204 65.229 95.0545 64.9562 94.2875C64.6834 93.5206 64.2733 93.1379 63.7276 93.1379H63.6046L63.6062 93.1364Z" fill="currentColor"/>
</svg>
